<svg xmlns="http://www.w3.org/2000/svg" width="43" height="42" fill="none" viewBox="0 0 43 42">
  <path fill="#001228" d="M23.189 6.001a6.003 6.003 0 0 1 11.622 0H42.5v3h-7.689a6.002 6.002 0 0 1-11.622 0H.5v-3h22.689ZM26 7.501a3 3 0 1 0 6 0 3 3 0 0 0-6 0Z"/>
  <path fill="#001228" fill-rule="evenodd" d="M23.189 33.001a6.003 6.003 0 0 1 11.622 0H42.5v3h-7.689a6.002 6.002 0 0 1-11.622 0H.5v-3h22.689Zm2.811 1.5a3 3 0 1 0 6 0 3 3 0 0 0-6 0Z" clip-rule="evenodd"/>
  <path fill="#001228" d="M14 27.001a6.002 6.002 0 0 1-5.811-4.5H.5v-3h7.689a6.003 6.003 0 0 1 11.622 0H42.5v3H19.811a6.002 6.002 0 0 1-5.811 4.5Zm0-3a3 3 0 1 0 0-6 3 3 0 0 0 0 6Z"/>
</svg>
