<svg xmlns="http://www.w3.org/2000/svg" width="42" height="42" fill="none" viewBox="0 0 42 42">
  <path fill="#fff" d="M31 21c0 5.523-4.477 10-10 10s-10-4.477-10-10 4.477-10 10-10 10 4.477 10 10Zm-3 0a7 7 0 1 0-14 0 7 7 0 0 0 14 0Z"/>
  <path fill="#fff" d="M26.3.5H15.7v4.659c-.742.248-1.461.547-2.153.893l-3.295-3.295-7.495 7.495 3.295 3.295c-.346.691-.645 1.41-.893 2.153H.5v10.6h4.659c.248.742.547 1.462.893 2.153l-3.295 3.295 7.495 7.495 3.295-3.295c.692.346 1.41.645 2.153.893V41.5h10.6v-4.659a16.597 16.597 0 0 0 2.153-.893l3.295 3.295 7.495-7.495-3.295-3.295c.346-.692.645-1.41.893-2.153H41.5V15.7h-4.659a16.61 16.61 0 0 0-.893-2.153l3.295-3.295-7.495-7.495-3.295 3.295a16.602 16.602 0 0 0-2.153-.893V.5Zm-7.6 6.942V3.5h4.6v3.942l1.126.29a13.61 13.61 0 0 1 3.532 1.464l1.002.592 2.788-2.789 3.253 3.253-2.789 2.788.592 1.002a13.613 13.613 0 0 1 1.465 3.532l.29 1.126H38.5v4.6h-3.942l-.29 1.126a13.61 13.61 0 0 1-1.464 3.532l-.592 1.002 2.789 2.788-3.253 3.253-2.788-2.789-1.002.592a13.61 13.61 0 0 1-3.532 1.465l-1.126.29V38.5h-4.6v-3.942l-1.126-.29a13.61 13.61 0 0 1-3.532-1.464l-1.002-.592-2.788 2.789-3.253-3.253 2.789-2.788-.592-1.002a13.61 13.61 0 0 1-1.464-3.532l-.29-1.126H3.5v-4.6h3.942l.29-1.126c.323-1.256.82-2.442 1.464-3.532l.592-1.002-2.789-2.788 3.253-3.253 2.788 2.789 1.002-.592a13.61 13.61 0 0 1 3.532-1.464l1.126-.29Z"/>
</svg>
